<svg width="24" height="24" viewBox="0 0 24 24" fill="none" xmlns="http://www.w3.org/2000/svg">
<circle cx="12" cy="12" r="12" fill="#1F1F22"/>
<path fill-rule="evenodd" clip-rule="evenodd" d="M16.7582 17.6381C19.0817 15.6355 19.9195 12.3898 18.8578 9.50367C17.7962 6.6175 15.0596 4.70134 11.9995 4.70134C8.93934 4.70134 6.20282 6.6175 5.14117 9.50367C4.07951 12.3898 4.91727 15.6355 7.24078 17.6381L5.65336 19.499C3.49058 17.6377 2.24687 14.9172 2.25001 12.0546C2.25001 6.63968 6.61523 2.25 12 2.25C14.5859 2.25 17.0658 3.28298 18.8943 5.12171C20.7228 6.96043 21.75 9.45427 21.75 12.0546C21.7532 14.9178 20.5091 17.6387 18.3456 19.5L16.7582 17.6381Z" fill="white" fill-opacity="0.08"/>
<path fill-rule="evenodd" clip-rule="evenodd" d="M5.9592 15.75L3.75 17.1252C4.31083 18.0153 5.0037 18.816 5.80512 19.5L7.5 17.5332C6.8987 17.0206 6.37917 16.4201 5.9592 15.7522V15.75Z" fill="white"/>
<path d="M12.1443 10.9874L10.5 11.7809V10.7852L12.4042 9.75H13.5V15H12.1443V10.9874Z" fill="white"/>
<rect width="24" height="24" rx="12" fill="url(#paint0_linear_4112_14587)" fill-opacity="0.15"/>
<rect x="0.5" y="0.5" width="23" height="23" rx="11.5" stroke="white" stroke-opacity="0.08"/>
<defs>
<linearGradient id="paint0_linear_4112_14587" x1="11.9829" y1="12" x2="11.9829" y2="12.0342" gradientUnits="userSpaceOnUse">
<stop stop-color="white"/>
<stop offset="1" stop-color="white" stop-opacity="0.01"/>
<stop offset="1" stop-color="white" stop-opacity="0.01"/>
</linearGradient>
</defs>
</svg>
