<svg width="24" height="24" viewBox="0 0 24 24" fill="none" xmlns="http://www.w3.org/2000/svg">
<circle cx="12" cy="12" r="12" fill="#1F1F22"/>
<path fill-rule="evenodd" clip-rule="evenodd" d="M16.7592 17.6381C19.0827 15.6355 19.9205 12.3898 18.8588 9.50367C17.7972 6.6175 15.0607 4.70134 12.0005 4.70134C8.94035 4.70134 6.20384 6.6175 5.14218 9.50367C4.08052 12.3898 4.91828 15.6355 7.2418 17.6381L5.65438 19.499C3.49121 17.6379 2.24713 14.9174 2.25 12.0546C2.25 6.63968 6.61523 2.25 12 2.25C14.5859 2.25 17.0658 3.28298 18.8943 5.12171C20.7228 6.96043 21.75 9.45427 21.75 12.0546C21.7532 14.9178 20.5091 17.6387 18.3456 19.5L16.7592 17.6381Z" fill="white" fill-opacity="0.08"/>
<path fill-rule="evenodd" clip-rule="evenodd" d="M16.7592 17.6381C19.0827 15.6355 19.9205 12.3898 18.8588 9.50367C17.7972 6.6175 15.0607 4.70134 12.0005 4.70134C8.94035 4.70134 6.20384 6.6175 5.14218 9.50367C4.08052 12.3898 4.91828 15.6355 7.2418 17.6381L5.65438 19.499C3.49121 17.6379 2.24713 14.9174 2.25 12.0546C2.25 6.63968 6.61523 2.25 12 2.25C14.5859 2.25 17.0658 3.28298 18.8943 5.12171C20.7228 6.96043 21.75 9.45427 21.75 12.0546C21.7532 14.9178 20.5091 17.6387 18.3456 19.5L16.7592 17.6381Z" fill="#FF4655"/>
<path fill-rule="evenodd" clip-rule="evenodd" d="M13.6958 14.2498C13.4452 14.2498 13.2394 14.2414 13.0805 14.2264C12.9038 14.2077 12.7291 14.1762 12.5579 14.1321C12.3858 14.0902 12.2254 14.0154 12.0872 13.9126C11.9535 13.7939 11.8511 13.6489 11.7877 13.4885C11.6966 13.2844 11.6529 13.0652 11.6593 12.8449V10.4049C11.6593 10.1639 11.7001 9.95187 11.7795 9.76972C11.845 9.60602 11.9502 9.45811 12.0872 9.33722C12.1962 9.24848 12.3439 9.17842 12.5324 9.12611C12.7152 9.06948 12.9046 9.03249 13.0968 9.01588C13.3138 9.0056 13.5145 9 13.6958 9C13.9526 9 14.1583 9.00841 14.3122 9.02335C14.4865 9.03786 14.6587 9.06949 14.8256 9.1177C15.0314 9.17562 15.1934 9.25128 15.3136 9.34563C15.4338 9.43904 15.5357 9.57542 15.6213 9.75384C15.7069 9.93132 15.7497 10.148 15.7497 10.4049V12.8449C15.7497 13.0859 15.7069 13.2979 15.6213 13.4801C15.5573 13.642 15.4518 13.7875 15.3136 13.9042C15.1741 14.0051 15.0141 14.0798 14.843 14.1237C14.6494 14.1816 14.464 14.2152 14.2867 14.2264C14.0903 14.2436 13.8931 14.2514 13.6958 14.2498ZM9.01491 10.2787L7.5 11.0484V10.0826L9.25432 9.07837H10.2639V14.1712H9.01491V10.2787ZM14.2272 13.4729C14.1243 13.4991 13.9531 13.5122 13.7137 13.5122C13.4682 13.5122 13.292 13.4991 13.183 13.4729C13.0801 13.4421 13.0118 13.387 12.9782 13.3085C12.9435 13.23 12.9272 13.1011 12.9272 12.9237V10.3268C12.9272 10.1484 12.9435 10.0204 12.9782 9.94192C13.0144 9.86172 13.0914 9.80301 13.184 9.78499C13.292 9.75416 13.4692 9.73828 13.7137 9.73828C13.9531 9.73828 14.1253 9.75416 14.2272 9.78499C14.3198 9.80301 14.3968 9.86172 14.433 9.94192C14.4666 10.0204 14.4839 10.1493 14.4839 10.3268V12.9237C14.4839 13.1021 14.4666 13.23 14.433 13.3085C14.3956 13.3894 14.3197 13.45 14.2272 13.4729Z" fill="#FF4655"/>
<rect width="24" height="24" rx="12" fill="url(#paint0_linear_4112_14596)" fill-opacity="0.15"/>
<rect x="0.5" y="0.5" width="23" height="23" rx="11.5" stroke="white" stroke-opacity="0.08"/>
<defs>
<linearGradient id="paint0_linear_4112_14596" x1="11.9829" y1="12" x2="11.9829" y2="12.0342" gradientUnits="userSpaceOnUse">
<stop stop-color="white"/>
<stop offset="1" stop-color="white" stop-opacity="0.01"/>
<stop offset="1" stop-color="white" stop-opacity="0.01"/>
</linearGradient>
</defs>
</svg>
