<svg width="24" height="24" viewBox="0 0 24 24" fill="none" xmlns="http://www.w3.org/2000/svg">
<circle cx="12" cy="12" r="12" fill="#1F1F22"/>
<path fill-rule="evenodd" clip-rule="evenodd" d="M16.7582 17.6381C19.0817 15.6355 19.9195 12.3898 18.8578 9.50367C17.7962 6.6175 15.0596 4.70134 11.9995 4.70134C8.93934 4.70134 6.20282 6.6175 5.14117 9.50367C4.07951 12.3898 4.91727 15.6355 7.24078 17.6381L5.65336 19.499C3.49058 17.6377 2.24687 14.9172 2.25001 12.0546C2.25001 6.63968 6.61523 2.25 12 2.25C14.5859 2.25 17.0658 3.28298 18.8943 5.12171C20.7228 6.96043 21.75 9.45427 21.75 12.0546C21.7532 14.9178 20.5091 17.6387 18.3456 19.5L16.7582 17.6381Z" fill="white" fill-opacity="0.08"/>
<path fill-rule="evenodd" clip-rule="evenodd" d="M5.35033 15.0009L3 15.797C3.59548 17.23 4.58151 18.5038 5.86658 19.5L7.5 17.7775C6.53613 17.0304 5.79667 16.0749 5.35033 15V15.0009Z" fill="#2BB85E"/>
<path d="M9.75 13.0722C9.75 12.7848 9.83225 12.5354 9.99674 12.323C10.1626 12.1092 10.3838 11.9417 10.6381 11.8374C10.8775 11.7355 11.1219 11.645 11.3704 11.5662C11.5988 11.4988 11.8171 11.4025 12.0196 11.2798C12.1733 11.1784 12.2497 11.0589 12.2497 10.9214V10.2594C12.2497 10.0954 12.1811 9.98631 12.0441 9.9332C11.8972 9.8744 11.6661 9.84595 11.3538 9.84595C10.9749 9.84595 10.4765 9.91234 9.85672 10.0451V9.1679C10.4223 9.05447 10.9985 8.99822 11.576 9.00004C12.2223 9.00004 12.702 9.09582 13.0153 9.28739C13.3326 9.478 13.4922 9.79664 13.4922 10.2433V10.9602C13.4922 11.2305 13.407 11.4667 13.2376 11.6686C13.0673 11.869 12.8459 12.0226 12.5953 12.1144C12.3486 12.2158 12.096 12.3059 11.8384 12.3856C11.6019 12.4603 11.3777 12.5676 11.1727 12.7042C11.014 12.8209 10.9337 12.9603 10.9337 13.1186V13.3813H13.5V14.25H9.75V13.0712L9.75 13.0722Z" fill="#2BB85E"/>
<rect width="24" height="24" rx="12" fill="url(#paint0_linear_4112_14588)" fill-opacity="0.15"/>
<rect x="0.5" y="0.5" width="23" height="23" rx="11.5" stroke="white" stroke-opacity="0.08"/>
<defs>
<linearGradient id="paint0_linear_4112_14588" x1="11.9829" y1="12" x2="11.9829" y2="12.0342" gradientUnits="userSpaceOnUse">
<stop stop-color="white"/>
<stop offset="1" stop-color="white" stop-opacity="0.01"/>
<stop offset="1" stop-color="white" stop-opacity="0.01"/>
</linearGradient>
</defs>
</svg>
