<svg width="24" height="24" viewBox="0 0 24 24" fill="none" xmlns="http://www.w3.org/2000/svg">
<circle cx="12" cy="12" r="12" fill="#1F1F22"/>
<path fill-rule="evenodd" clip-rule="evenodd" d="M16.7592 17.6381C19.0827 15.6355 19.9205 12.3898 18.8588 9.50367C17.7972 6.6175 15.0607 4.70134 12.0005 4.70134C8.94035 4.70134 6.20384 6.6175 5.14218 9.50367C4.08052 12.3898 4.91828 15.6355 7.2418 17.6381L5.65438 19.499C3.49121 17.6379 2.24713 14.9174 2.25 12.0546C2.25 6.63968 6.61523 2.25 12 2.25C14.5859 2.25 17.0658 3.28298 18.8943 5.12171C20.7228 6.96043 21.75 9.45427 21.75 12.0546C21.7532 14.9178 20.5091 17.6387 18.3456 19.5L16.7592 17.6381Z" fill="white" fill-opacity="0.08"/>
<path fill-rule="evenodd" clip-rule="evenodd" d="M2.25001 12C2.24667 14.8842 3.5554 17.625 5.8312 19.5L7.5 17.6245C5.79357 16.2182 4.81241 14.1628 4.81517 12H2.25001V12Z" fill="#2BB85E"/>
<path d="M11.5465 14.25C11.0854 14.25 10.4869 14.2108 9.75 14.1323V13.2215L10.0139 13.2682C10.1179 13.2897 10.1758 13.3028 10.1866 13.3084L10.4672 13.3551C10.533 13.3653 10.6733 13.3812 10.8872 13.4018C11.052 13.4177 11.2198 13.4261 11.3905 13.4261C11.7084 13.4261 11.9282 13.3887 12.0498 13.3158C12.1754 13.243 12.2392 13.1038 12.2392 12.9001V12.3116C12.2392 12.0659 11.9615 11.9426 11.4062 11.9426H10.4349V11.1579H11.4062C11.835 11.1579 12.0498 11.0085 12.0498 10.7105V10.2163C12.0558 10.1279 12.0324 10.04 11.9831 9.96499C11.94 9.9024 11.8595 9.8585 11.7447 9.83234C11.582 9.80152 11.4161 9.78836 11.2502 9.79311C10.9362 9.79311 10.4535 9.82393 9.79906 9.88652V9.071C10.5467 9.02429 11.0746 9 11.3817 9C12.0518 9 12.5355 9.0738 12.8328 9.21953C13.135 9.36619 13.2861 9.62496 13.2861 9.99675V10.8366C13.2893 10.9804 13.2362 11.1203 13.137 11.2289C13.0425 11.3343 12.9154 11.4085 12.7739 11.441C13.2586 11.6026 13.5 11.8567 13.5 12.2014V13.0328C13.5 13.4681 13.343 13.7792 13.03 13.9669C12.717 14.1556 12.2225 14.25 11.5465 14.25Z" fill="#2BB85E"/>
<rect width="24" height="24" rx="12" fill="url(#paint0_linear_4112_14589)" fill-opacity="0.15"/>
<rect x="0.5" y="0.5" width="23" height="23" rx="11.5" stroke="white" stroke-opacity="0.08"/>
<defs>
<linearGradient id="paint0_linear_4112_14589" x1="11.9829" y1="12" x2="11.9829" y2="12.0342" gradientUnits="userSpaceOnUse">
<stop stop-color="white"/>
<stop offset="1" stop-color="white" stop-opacity="0.01"/>
<stop offset="1" stop-color="white" stop-opacity="0.01"/>
</linearGradient>
</defs>
</svg>
