<svg width="24" height="24" viewBox="0 0 24 24" fill="none" xmlns="http://www.w3.org/2000/svg">
<circle cx="12" cy="12" r="12" fill="#1F1F22"/>
<path fill-rule="evenodd" clip-rule="evenodd" d="M16.7592 17.6381C19.0827 15.6355 19.9205 12.3898 18.8588 9.50367C17.7972 6.6175 15.0607 4.70134 12.0005 4.70134C8.94035 4.70134 6.20384 6.6175 5.14218 9.50367C4.08052 12.3898 4.91828 15.6355 7.2418 17.6381L5.65438 19.499C3.49121 17.6379 2.24713 14.9174 2.25 12.0546C2.25 6.63968 6.61523 2.25 12 2.25C14.5859 2.25 17.0658 3.28298 18.8943 5.12171C20.7228 6.96043 21.75 9.45427 21.75 12.0546C21.7532 14.9178 20.5091 17.6387 18.3456 19.5L16.7592 17.6381Z" fill="white" fill-opacity="0.08"/>
<path fill-rule="evenodd" clip-rule="evenodd" d="M7.06838 6.96976L5.25321 5.25C3.32687 7.07077 2.24604 9.54394 2.25001 12.1219C2.24698 14.9592 3.55569 17.6555 5.8312 19.5L7.5 17.6557C5.79357 16.2722 4.81242 14.2499 4.81518 12.1219C4.81518 10.1097 5.67522 8.28767 7.06731 6.96976H7.06838Z" fill="#FDD939"/>
<path fill-rule="evenodd" clip-rule="evenodd" d="M9.75 13.1915H12.4391V14.25H13.6225V13.1906H14.25V12.342H13.6225V9H12.1435L9.75 12.2602V13.1915ZM12.4393 10.1162V12.341H10.8706L12.4393 10.1162Z" fill="#FDD939"/>
<rect width="24" height="24" rx="12" fill="url(#paint0_linear_4112_14590)" fill-opacity="0.15"/>
<rect x="0.5" y="0.5" width="23" height="23" rx="11.5" stroke="white" stroke-opacity="0.08"/>
<defs>
<linearGradient id="paint0_linear_4112_14590" x1="11.9829" y1="12" x2="11.9829" y2="12.0342" gradientUnits="userSpaceOnUse">
<stop stop-color="white"/>
<stop offset="1" stop-color="white" stop-opacity="0.01"/>
<stop offset="1" stop-color="white" stop-opacity="0.01"/>
</linearGradient>
</defs>
</svg>
