<svg width="24" height="24" viewBox="0 0 24 24" fill="none" xmlns="http://www.w3.org/2000/svg">
<circle cx="12" cy="12" r="12" fill="#1F1F22"/>
<path fill-rule="evenodd" clip-rule="evenodd" d="M16.7592 17.6381C19.0827 15.6355 19.9205 12.3898 18.8588 9.50367C17.7972 6.6175 15.0607 4.70134 12.0005 4.70134C8.94035 4.70134 6.20384 6.6175 5.14218 9.50367C4.08052 12.3898 4.91828 15.6355 7.2418 17.6381L5.65438 19.499C3.49121 17.6379 2.24713 14.9174 2.25 12.0546C2.25 6.63968 6.61523 2.25 12 2.25C14.5859 2.25 17.0658 3.28298 18.8943 5.12171C20.7228 6.96043 21.75 9.45427 21.75 12.0546C21.7532 14.9178 20.5091 17.6387 18.3456 19.5L16.7592 17.6381Z" fill="white" fill-opacity="0.08"/>
<path fill-rule="evenodd" clip-rule="evenodd" d="M12 2.25C6.61523 2.25 2.25001 6.63968 2.25001 12.0546C2.24683 14.9178 3.49094 17.6387 5.65438 19.5L7.24078 17.6381C4.91705 15.6355 4.07922 12.3896 5.14103 9.50328C6.20283 6.61697 8.93966 4.70085 12 4.70115V2.25Z" fill="#FDD939"/>
<path d="M11.8727 15C11.457 15 10.8324 14.9664 10 14.8992V13.798C10.7484 13.9379 11.3116 14.0072 11.6918 14.0072C12.0235 14.0072 12.2647 13.9715 12.4154 13.8988C12.5574 13.8344 12.6466 13.6902 12.6416 13.5336V12.6514C12.6416 12.4866 12.5877 12.3717 12.479 12.3046C12.3702 12.2319 12.1925 12.1962 11.9448 12.1962H10.1357V9H13.8445V10.0199H11.4581V11.2218H12.3799C12.7299 11.2218 13.0713 11.2879 13.4029 11.4223C13.775 11.581 14.012 11.9534 13.9995 12.3598V13.5975C13.9995 13.8349 13.9543 14.0473 13.8638 14.2348C13.7734 14.4169 13.6592 14.5567 13.5192 14.6543C13.3718 14.7573 13.2063 14.8313 13.0314 14.8721C12.8322 14.9263 12.6394 14.9632 12.4531 14.9816C12.2602 14.9929 12.067 14.9991 11.8738 15H11.8727Z" fill="#FDD939"/>
<rect width="24" height="24" rx="12" fill="url(#paint0_linear_4112_14591)" fill-opacity="0.15"/>
<rect x="0.5" y="0.5" width="23" height="23" rx="11.5" stroke="white" stroke-opacity="0.08"/>
<defs>
<linearGradient id="paint0_linear_4112_14591" x1="11.9829" y1="12" x2="11.9829" y2="12.0342" gradientUnits="userSpaceOnUse">
<stop stop-color="white"/>
<stop offset="1" stop-color="white" stop-opacity="0.01"/>
<stop offset="1" stop-color="white" stop-opacity="0.01"/>
</linearGradient>
</defs>
</svg>
