<svg width="24" height="24" viewBox="0 0 24 24" fill="none" xmlns="http://www.w3.org/2000/svg">
<circle cx="12" cy="12" r="12" fill="#1F1F22"/>
<path fill-rule="evenodd" clip-rule="evenodd" d="M16.7592 17.6381C19.0827 15.6355 19.9205 12.3898 18.8588 9.50367C17.7972 6.6175 15.0607 4.70134 12.0005 4.70134C8.94035 4.70134 6.20384 6.6175 5.14218 9.50367C4.08052 12.3898 4.91828 15.6355 7.2418 17.6381L5.65438 19.499C3.49121 17.6379 2.24713 14.9174 2.25 12.0546C2.25 6.63968 6.61523 2.25 12 2.25C14.5859 2.25 17.0658 3.28298 18.8943 5.12171C20.7228 6.96043 21.75 9.45427 21.75 12.0546C21.7532 14.9178 20.5091 17.6387 18.3456 19.5L16.7592 17.6381Z" fill="white" fill-opacity="0.08"/>
<path fill-rule="evenodd" clip-rule="evenodd" d="M15.95 5.81971C12.688 3.78039 8.40563 4.60088 6.12796 7.7016C3.8503 10.8023 4.34736 15.135 7.26804 17.6391L5.67297 19.5C3.49799 17.6388 2.24711 14.9182 2.25001 12.0552C2.25001 6.63994 6.63907 2.25 12.0533 2.25C13.9628 2.25 15.7428 2.79644 17.25 3.73916L15.95 5.81971Z" fill="#FDD939"/>
<path fill-rule="evenodd" clip-rule="evenodd" d="M11.0353 14.2263C11.2288 14.2439 11.4232 14.2517 11.6175 14.2497C11.8014 14.2513 11.9853 14.2435 12.1684 14.2263C12.3423 14.2148 12.5139 14.1802 12.6784 14.1236C12.8541 14.0666 12.9947 13.99 13.1011 13.8966C13.2179 13.7967 13.3138 13.6584 13.3889 13.4809C13.463 13.2978 13.5 13.0858 13.5 12.8457V12.1545C13.5 11.9396 13.4715 11.7547 13.4126 11.5978C13.349 11.4464 13.2749 11.3334 13.1894 11.2596C13.1087 11.1821 12.9852 11.1214 12.8143 11.0793C12.6547 11.0373 12.5113 11.0139 12.3831 11.0093C12.2558 10.9981 12.0487 10.9934 11.7609 10.9934H10.908V10.389C10.908 10.1947 10.9232 10.0621 10.9555 9.98922C10.9926 9.91076 11.0647 9.85845 11.1711 9.83229C11.2765 9.80614 11.458 9.79306 11.7135 9.79306C12.0221 9.79306 12.535 9.83509 13.2531 9.91916V9.07847C12.5246 9.02616 12.0449 9 11.817 9C11.6517 9 11.4684 9.0056 11.2661 9.01588C11.0709 9.03351 10.8785 9.07299 10.6924 9.13358C10.4949 9.19149 10.3382 9.26435 10.2213 9.35309C10.0827 9.45771 9.96869 9.60997 9.87846 9.808C9.79298 10.0023 9.75024 10.2246 9.75024 10.475V12.8448C9.74658 13.0643 9.78459 13.2826 9.86232 13.4884C9.92084 13.6427 10.0136 13.7821 10.134 13.8966C10.2597 14.001 10.4062 14.0783 10.5642 14.1236C10.7172 14.1736 10.8751 14.208 11.0353 14.2263ZM12.1201 13.449C12.0299 13.4752 11.8675 13.4882 11.6338 13.4882H11.6329C11.4049 13.4882 11.2397 13.4752 11.139 13.449C11.043 13.4228 10.9794 13.3705 10.9471 13.2921C10.9205 13.2136 10.9072 13.0847 10.9072 12.9072V11.7461H11.6253C11.783 11.7416 11.9408 11.7523 12.0964 11.7779C12.197 11.7984 12.2635 11.8377 12.2958 11.8956C12.3281 11.9469 12.3433 12.0366 12.3433 12.1618V12.8997C12.3495 13.0342 12.336 13.1688 12.3034 13.2995C12.2768 13.3733 12.216 13.4228 12.1201 13.449Z" fill="#FDD939"/>
<rect width="24" height="24" rx="12" fill="url(#paint0_linear_4112_14592)" fill-opacity="0.15"/>
<rect x="0.5" y="0.5" width="23" height="23" rx="11.5" stroke="white" stroke-opacity="0.08"/>
<defs>
<linearGradient id="paint0_linear_4112_14592" x1="11.9829" y1="12" x2="11.9829" y2="12.0342" gradientUnits="userSpaceOnUse">
<stop stop-color="white"/>
<stop offset="1" stop-color="white" stop-opacity="0.01"/>
<stop offset="1" stop-color="white" stop-opacity="0.01"/>
</linearGradient>
</defs>
</svg>
