<svg width="24" height="24" viewBox="0 0 24 24" fill="none" xmlns="http://www.w3.org/2000/svg">
<circle cx="12" cy="12" r="12" fill="#1F1F22"/>
<path fill-rule="evenodd" clip-rule="evenodd" d="M16.7592 17.6381C19.0827 15.6355 19.9205 12.3898 18.8588 9.50367C17.7972 6.6175 15.0607 4.70134 12.0005 4.70134C8.94035 4.70134 6.20384 6.6175 5.14218 9.50367C4.08052 12.3898 4.91828 15.6355 7.2418 17.6381L5.65438 19.499C3.49121 17.6379 2.24713 14.9174 2.25 12.0546C2.25 6.63968 6.61523 2.25 12 2.25C14.5859 2.25 17.0658 3.28298 18.8943 5.12171C20.7228 6.96043 21.75 9.45427 21.75 12.0546C21.7532 14.9178 20.5091 17.6387 18.3456 19.5L16.7592 17.6381Z" fill="white" fill-opacity="0.08"/>
<path fill-rule="evenodd" clip-rule="evenodd" d="M17.5516 7.89026C15.9903 5.53904 13.2573 4.33712 10.5413 4.80731C7.82526 5.27749 5.6173 7.3348 4.8778 10.0843C4.1383 12.8338 5.00094 15.7785 7.09049 17.6375L5.55186 19.5C3.45357 17.6391 2.24693 14.9188 2.25001 12.0563C2.24868 7.76157 4.94446 3.96607 8.90105 2.692C12.8576 1.41794 17.1536 2.96202 19.5 6.50158L17.5516 7.89026Z" fill="#FDD939"/>
<path d="M12.2306 9.92251H9.75V9H13.5V9.80888L11.5378 14.25H10.2628L12.2316 9.92251H12.2306Z" fill="#FDD939"/>
<rect width="24" height="24" rx="12" fill="url(#paint0_linear_4112_14593)" fill-opacity="0.15"/>
<rect x="0.5" y="0.5" width="23" height="23" rx="11.5" stroke="white" stroke-opacity="0.08"/>
<defs>
<linearGradient id="paint0_linear_4112_14593" x1="11.9829" y1="12" x2="11.9829" y2="12.0342" gradientUnits="userSpaceOnUse">
<stop stop-color="white"/>
<stop offset="1" stop-color="white" stop-opacity="0.01"/>
<stop offset="1" stop-color="white" stop-opacity="0.01"/>
</linearGradient>
</defs>
</svg>
