<svg width="24" height="24" viewBox="0 0 24 24" fill="none" xmlns="http://www.w3.org/2000/svg">
<circle cx="12" cy="12" r="12" fill="#1F1F22"/>
<path fill-rule="evenodd" clip-rule="evenodd" d="M16.7592 17.6381C19.0827 15.6355 19.9205 12.3898 18.8588 9.50367C17.7972 6.6175 15.0607 4.70134 12.0005 4.70134C8.94035 4.70134 6.20384 6.6175 5.14218 9.50367C4.08052 12.3898 4.91828 15.6355 7.2418 17.6381L5.65438 19.499C3.49121 17.6379 2.24713 14.9174 2.25 12.0546C2.25 6.63968 6.61523 2.25 12 2.25C14.5859 2.25 17.0658 3.28298 18.8943 5.12171C20.7228 6.96043 21.75 9.45427 21.75 12.0546C21.7532 14.9178 20.5091 17.6387 18.3456 19.5L16.7592 17.6381Z" fill="white" fill-opacity="0.08"/>
<path fill-rule="evenodd" clip-rule="evenodd" d="M17.5516 7.89026C15.9903 5.53904 13.2573 4.33712 10.5413 4.80731C7.82526 5.27749 5.6173 7.3348 4.8778 10.0843C4.1383 12.8338 5.00094 15.7785 7.09049 17.6375L5.55186 19.5C3.45357 17.6391 2.24693 14.9188 2.25001 12.0563C2.24868 7.76157 4.94446 3.96607 8.90105 2.692C12.8576 1.41794 17.1536 2.96202 19.5 6.50158L17.5516 7.89026Z" fill="#FDD939"/>
<path d="M12.2306 9.92251H9.75V9H13.5V9.80888L11.5378 14.25H10.2628L12.2316 9.92251H12.2306Z" fill="#FDD939"/>
<circle cx="12" cy="12" r="12" fill="#1F1F22"/>
<path fill-rule="evenodd" clip-rule="evenodd" d="M16.9512 16.9691C19.1853 15.0536 19.9909 11.949 18.97 9.1883C17.9492 6.42761 15.3179 4.59476 12.3755 4.59476C9.43303 4.59476 6.80177 6.42761 5.78094 9.1883C4.76012 11.949 5.56566 15.0536 7.79981 16.9691L6.27344 18.749C4.19347 16.9688 2.99724 14.3667 3 11.6283C3 6.44882 7.19733 2.25 12.375 2.25C14.8614 2.25 17.246 3.23807 19.0041 4.99685C20.7623 6.75563 21.75 9.14104 21.75 11.6283C21.753 14.367 20.5568 16.9696 18.4766 18.75L16.9512 16.9691Z" fill="white" fill-opacity="0.08"/>
<path fill-rule="evenodd" clip-rule="evenodd" d="M18.6563 11.6283H21C21 6.44882 16.8027 2.25 11.625 2.25C6.44733 2.25 2.25001 6.44882 2.25001 11.6283C2.24695 14.367 3.44322 16.9696 5.52344 18.75L7.04883 16.9691C4.5819 14.8536 3.88532 11.3227 5.36391 8.42824C6.84249 5.53382 10.1111 4.02988 13.2702 4.79043C16.4293 5.55097 18.656 8.37788 18.6563 11.6283Z" fill="#FFA501"/>
<path fill-rule="evenodd" clip-rule="evenodd" d="M12.0011 15C11.2201 15 10.6487 14.9039 10.2858 14.7128C9.92931 14.5206 9.75 14.1897 9.75 13.7178V12.7132C9.75 12.521 9.84722 12.3427 10.0406 12.1751C10.2339 12.0075 10.464 11.8943 10.7297 11.8335V11.7982C10.5256 11.775 10.3345 11.687 10.1853 11.5473C10.0381 11.4245 9.95211 11.2445 9.94983 11.0541V10.2203C9.94983 9.80178 10.1043 9.49431 10.4121 9.29573C10.7265 9.09929 11.2558 9 12 9C12.7442 9 13.2703 9.09929 13.5792 9.29573C13.8935 9.49324 14.0512 9.80178 14.0512 10.2203V11.053C14.049 11.244 13.9626 11.4245 13.8147 11.5473C13.6655 11.687 13.4744 11.775 13.2703 11.7982V11.8345C13.5371 11.8943 13.7672 12.0075 13.9605 12.1751C14.1539 12.3427 14.25 12.5221 14.25 12.7132V13.7167C14.25 14.2014 14.0664 14.5367 13.697 14.7214C13.3275 14.9071 12.7626 14.9989 12.0011 14.9989V15ZM12.0018 11.4842C12.2675 11.4842 12.4511 11.4479 12.5548 11.3774C12.6628 11.2984 12.7168 11.1767 12.7168 11.0091V10.3365C12.7168 10.1625 12.6628 10.0408 12.5548 9.96818C12.4511 9.89131 12.2675 9.85181 12.0007 9.85181C11.735 9.85181 11.547 9.89131 11.439 9.96924C11.3353 10.0408 11.2845 10.1625 11.2845 10.3365V11.0091C11.2761 11.1458 11.3328 11.2786 11.4379 11.3678C11.5351 11.4458 11.7231 11.4853 12.0007 11.4853L12.0018 11.4842ZM12.5634 14.1029C12.4489 14.1328 12.261 14.1478 12.0017 14.1478C11.7403 14.1478 11.5502 14.1328 11.4292 14.1029C11.3147 14.073 11.2359 14.0218 11.1927 13.9513C11.157 13.8787 11.1387 13.7645 11.1387 13.6097V12.8197C11.1387 12.635 11.1959 12.5068 11.3115 12.4353C11.4325 12.3574 11.6647 12.3179 12.0104 12.3179C12.3733 12.3179 12.6055 12.3574 12.7082 12.4342C12.8119 12.5186 12.8637 12.6467 12.8637 12.8207V13.6086C12.8637 13.7645 12.8421 13.8787 12.7989 13.9503C12.7633 14.0218 12.6844 14.073 12.5634 14.1029Z" fill="#FFA501"/>
<rect width="24" height="24" rx="12" fill="url(#paint0_linear_4112_14594)" fill-opacity="0.15"/>
<rect x="0.5" y="0.5" width="23" height="23" rx="11.5" stroke="white" stroke-opacity="0.08"/>
<defs>
<linearGradient id="paint0_linear_4112_14594" x1="11.9829" y1="12" x2="11.9829" y2="12.0342" gradientUnits="userSpaceOnUse">
<stop stop-color="white"/>
<stop offset="1" stop-color="white" stop-opacity="0.01"/>
<stop offset="1" stop-color="white" stop-opacity="0.01"/>
</linearGradient>
</defs>
</svg>
