<svg width="24" height="24" viewBox="0 0 24 24" fill="none" xmlns="http://www.w3.org/2000/svg">
<circle cx="12" cy="12" r="12" fill="#1F1F22"/>
<path fill-rule="evenodd" clip-rule="evenodd" d="M16.7592 17.6381C19.0827 15.6355 19.9205 12.3898 18.8588 9.50367C17.7972 6.6175 15.0607 4.70134 12.0005 4.70134C8.94035 4.70134 6.20384 6.6175 5.14218 9.50367C4.08052 12.3898 4.91828 15.6355 7.2418 17.6381L5.65438 19.499C3.49121 17.6379 2.24713 14.9174 2.25 12.0546C2.25 6.63968 6.61523 2.25 12 2.25C14.5859 2.25 17.0658 3.28298 18.8943 5.12171C20.7228 6.96043 21.75 9.45427 21.75 12.0546C21.7532 14.9178 20.5091 17.6387 18.3456 19.5L16.7592 17.6381Z" fill="white" fill-opacity="0.08"/>
<path fill-rule="evenodd" clip-rule="evenodd" d="M18.6188 15.186C20.2302 11.7422 18.9621 7.63108 15.6957 5.70872C12.4292 3.78636 8.24384 4.68809 6.04726 7.78745C3.85069 10.8868 4.36887 15.1595 7.2418 17.6371L5.65336 19.5C3.49031 17.6385 2.24658 14.9176 2.25001 12.0546C2.25001 9.45427 3.27724 6.96043 5.10571 5.12171C6.93419 3.28298 9.41414 2.25 12 2.25C14.5859 2.25 17.0658 3.28298 18.8943 5.12171C20.7228 6.96043 21.75 9.45427 21.75 12.0546C21.7526 13.4982 21.437 14.9245 20.8258 16.2308L18.6188 15.186Z" fill="#FFA501"/>
<path fill-rule="evenodd" clip-rule="evenodd" d="M10.7476 14.1715C11.2725 14.2238 11.7643 14.25 12.2191 14.25V14.2491C12.9308 14.2491 13.4453 14.137 13.7637 13.9128C14.0877 13.682 14.2497 13.3028 14.2497 12.775V10.405C14.2535 10.1855 14.2159 9.96729 14.1389 9.76134C14.0211 9.44984 13.7613 9.21131 13.4377 9.1177C13.2728 9.06539 13.1165 9.03456 12.9677 9.02335C12.8246 9.00841 12.6285 9 12.3793 9C12.2144 9 12.0315 9.0056 11.8297 9.01588C11.6601 9.03176 11.4876 9.06819 11.3123 9.12611C11.1427 9.1831 11.0044 9.2569 10.8982 9.34564C10.7826 9.45027 10.686 9.59413 10.6121 9.77722C10.5382 9.95565 10.5003 10.164 10.5003 10.404V11.0953C10.4968 11.2821 10.5266 11.468 10.5884 11.6446C10.6372 11.774 10.7131 11.8917 10.8111 11.9903C10.9188 12.08 11.0474 12.142 11.1854 12.1706C11.3258 12.209 11.4695 12.2353 11.6146 12.249C11.7425 12.2537 11.9491 12.2565 12.2362 12.2565H13.0956V12.7357C13.0956 12.9496 13.0738 13.1066 13.0321 13.2065C12.9942 13.3056 12.9146 13.3728 12.7934 13.4102C12.6711 13.4466 12.475 13.4653 12.204 13.4653C11.9121 13.4653 11.427 13.4289 10.7476 13.3551V14.1715ZM13.096 10.304V11.4951V11.496H12.3712C12.2113 11.5005 12.0515 11.4902 11.8936 11.4652C11.7979 11.4437 11.7344 11.4073 11.7031 11.355C11.6709 11.298 11.6558 11.2064 11.6558 11.0803V10.304C11.6558 10.1359 11.6709 10.0182 11.7031 9.95093C11.7361 9.8764 11.8048 9.8231 11.886 9.80894C12.043 9.77703 12.2034 9.76386 12.3636 9.7697C12.5313 9.76424 12.6992 9.77487 12.8648 9.80147C12.9605 9.82295 13.0212 9.86686 13.0487 9.93505C13.0799 10.0032 13.096 10.1266 13.096 10.304Z" fill="#FFA501"/>
<rect width="24" height="24" rx="12" fill="url(#paint0_linear_4112_14595)" fill-opacity="0.15"/>
<rect x="0.5" y="0.5" width="23" height="23" rx="11.5" stroke="white" stroke-opacity="0.08"/>
<defs>
<linearGradient id="paint0_linear_4112_14595" x1="11.9829" y1="12" x2="11.9829" y2="12.0342" gradientUnits="userSpaceOnUse">
<stop stop-color="white"/>
<stop offset="1" stop-color="white" stop-opacity="0.01"/>
<stop offset="1" stop-color="white" stop-opacity="0.01"/>
</linearGradient>
</defs>
</svg>
