<svg width="24" height="24" viewBox="0 0 24 24" fill="none" xmlns="http://www.w3.org/2000/svg">
<circle cx="12" cy="12" r="12" fill="#1F1F22"/>
<path fill-rule="evenodd" clip-rule="evenodd" d="M16.3922 17.2731C18.537 15.4156 19.3103 12.4051 18.3303 9.72804C17.3503 7.05102 14.8243 5.27371 11.9995 5.27371C9.17477 5.27371 6.64876 7.05102 5.66877 9.72804C4.68878 12.4051 5.4621 15.4156 7.60688 17.2731L6.14157 18.9991C4.14515 17.2726 2.99712 14.7493 3.00001 12.0941C3.00001 7.07158 7.02944 3 12 3C14.3869 3 16.6761 3.95813 18.364 5.66361C20.0518 7.36909 21 9.68222 21 12.0941C21.0029 14.7498 19.8545 17.2735 17.8575 19L16.3922 17.2731Z" fill="white" fill-opacity="0.08"/>
<g opacity="0.8">
<path d="M12.5288 7.5H11.4712H11.1394H9.75V8.97683V10.0106H11.1394H11.4712V8.97683H12.5288V10.0106V10.5666V10.9488L11.4712 11.6004V11.6351H11.4194L11.1394 11.8089V12.1477V12.9035V13.2857V13.5985V14.2934H11.4712H12.5288H12.8606V13.2857V12.9035V12.5386L13.5035 12.1477L14.25 11.6786V11.6351V10.5666V10.0106V9.889V8.97683V7.5H12.8606H12.5288Z" fill="white"/>
<path d="M11.1394 16.5V15H12.8606V16.5H11.1394Z" fill="white"/>
</g>
<rect width="24" height="24" rx="12" fill="url(#paint0_linear_4112_14586)" fill-opacity="0.15"/>
<rect x="1" y="1" width="22" height="22" rx="11" stroke="white" stroke-opacity="0.08" stroke-width="2"/>
<defs>
<linearGradient id="paint0_linear_4112_14586" x1="11.9829" y1="12" x2="11.9829" y2="12.0342" gradientUnits="userSpaceOnUse">
<stop stop-color="white"/>
<stop offset="1" stop-color="white" stop-opacity="0.01"/>
<stop offset="1" stop-color="white" stop-opacity="0.01"/>
</linearGradient>
</defs>
</svg>
